<?xml version="1.0" encoding="utf-8"?>
<!-- Generator: Adobe Illustrator 19.1.0, SVG Export Plug-In . SVG Version: 6.00 Build 0)  -->
<svg version="1.1" id="square" xmlns="http://www.w3.org/2000/svg" xmlns:xlink="http://www.w3.org/1999/xlink" x="0px" y="0px"
	 viewBox="-83 77.1 28 27.9" style="enable-background:new -83 77.1 28 27.9;" xml:space="preserve">
<style type="text/css">
	.st0{fill:none;stroke:#E9148B;stroke-width:1.1368;stroke-linecap:round;stroke-linejoin:round;stroke-miterlimit:10;}
	.st1{fill:none;stroke:#E9148B;stroke-width:0.6445;stroke-miterlimit:10;}
	.st2{fill:none;stroke:#E9148B;stroke-width:0.1569;stroke-linecap:round;stroke-linejoin:round;stroke-miterlimit:10;}
</style>
<circle class="st0" cx="-69.4" cy="90.7" r="12.9"/>
<line class="st0" x1="-60.3" y1="99.8" x2="-55.7" y2="104.3"/>
<path class="st1" d="M-74.9,91c0.5,0.9,1,1.6,0.9,2.6c-0.1,1-0.1,2.1-0.5,3c-0.3,0.7,0.2,0.7,0.5,0.9c1.1,1,2.4,0.6,3.7,0.9
	c0.9,0.2,2.3,1.2,2.5-1c0-0.4,0.6-0.5,1-0.5c0.7,0,1.3,0.1,2,0.4c0.9,0.4,2.4-0.4,2.8-1.3c0.2-0.4,0-0.4-0.3-0.6
	c-0.8-0.4-0.7-1.1-0.5-1.9c0.2-0.7,0.3-1.8-0.5-2.1c-0.8-0.3-0.3-0.6-0.1-0.8c0.8-0.9,1.3-1.9,1.8-3.1c0.5-1.2,0-1.2-0.6-1.4
	c-2.3-0.7-4.4-1.9-6.3-3.5c-0.7-0.6-1.4-0.4-1.4,0.6c-0.1,1-0.4,1.3-1.2,1.3c-0.3,0-0.6,0.1-0.8,0.5c-0.5,1.2-1.1,0.6-1.7,0.2
	c-0.3-0.2-0.5-0.6-0.9-0.3c-0.4,0.3-0.2,0.7,0,1c0.5,1,0.3,1.2-0.8,1.1c-0.2,0-0.4-0.1-0.6-0.2c-0.3-0.2-0.5-0.4-0.9-0.3
	c-0.3,0.1-0.6,0.2-0.9,0.2c-0.4,0.1-1-0.2-1,0.6c0,0.7,0.2,1.2,0.9,1.4C-76.8,89.3-75.7,89.6-74.9,91z"/>
<path class="st2" d="M-65.4,92.2l-0.8-1.3c-0.1-0.3-0.1-0.7,0.2-1l0,0c0.3-0.3,0.9-0.3,1.3,0l0,0c0.3,0.3,0.3,0.7,0.2,1L-65.4,92.2z
	"/>
<path class="st2" d="M-66.5,96.4l-0.8-1.3c-0.1-0.3-0.1-0.7,0.2-1l0,0c0.3-0.3,0.9-0.3,1.3,0l0,0c0.3,0.3,0.3,0.7,0.2,1L-66.5,96.4z
	"/>
<path class="st2" d="M-72.5,93.6l-0.8-1.3c-0.1-0.3-0.1-0.7,0.2-1h0c0.3-0.3,0.9-0.3,1.3,0l0,0c0.3,0.3,0.3,0.7,0.2,1L-72.5,93.6z"
	/>
<path class="st2" d="M-69.2,88.3L-70,87c-0.1-0.3-0.1-0.7,0.2-1l0,0c0.3-0.3,0.9-0.3,1.3,0l0,0c0.3,0.3,0.3,0.7,0.2,1L-69.2,88.3z"
	/>
</svg>
