<?xml version="1.0" encoding="utf-8"?>
<!-- Generator: Adobe Illustrator 19.2.1, SVG Export Plug-In . SVG Version: 6.00 Build 0)  -->
<svg version="1.1" id="square" xmlns="http://www.w3.org/2000/svg" xmlns:xlink="http://www.w3.org/1999/xlink" x="0px" y="0px"
	 viewBox="0 0 31.4 29.4" style="enable-background:new 0 0 31.4 29.4;" xml:space="preserve">
<style type="text/css">
	.st0{fill:#E6007E;}
</style>
<g>
	<path class="st0" d="M8,12.8c-0.1-0.1-0.1-0.1-0.2,0c-0.1,0.1-0.1,0.1,0,0.2l1,1c0,0,0.1,0,0.1,0S9,14,9,14C9,13.9,9,13.8,9,13.8
		L8,12.8z"/>
	<path class="st0" d="M8.4,12.5c-0.1-0.1-0.1-0.1-0.2,0s-0.1,0.1,0,0.2l1,1c0,0,0.1,0,0.1,0c0,0,0.1,0,0.1,0c0.1-0.1,0.1-0.1,0-0.2
		L8.4,12.5z"/>
	<path class="st0" d="M10.9,12.5c0.2-0.2,0.3-0.5,0.3-0.8c0-0.3-0.1-0.5-0.3-0.8c-0.2-0.2-0.5-0.3-0.8-0.3S9.6,10.8,9.4,11L9,11.4
		l1.5,1.5L10.9,12.5z M9.6,11.2c0.1-0.1,0.3-0.2,0.6-0.2c0.2,0,0.4,0.1,0.6,0.2c0.1,0.1,0.2,0.3,0.2,0.6c0,0.2-0.1,0.4-0.2,0.6
		l-0.2,0.2l-1.1-1.1L9.6,11.2z"/>
	<path class="st0" d="M11.3,16.1c-0.1-0.1-0.1-0.1-0.2,0s-0.1,0.1,0,0.2l1,1c0,0,0.1,0,0.1,0c0,0,0.1,0,0.1,0c0.1-0.1,0.1-0.1,0-0.2
		L11.3,16.1z"/>
	<path class="st0" d="M11.6,15.7c-0.1-0.1-0.1-0.1-0.2,0c-0.1,0.1-0.1,0.1,0,0.2l1,1c0,0,0.1,0,0.1,0c0,0,0.1,0,0.1,0
		c0.1-0.1,0.1-0.1,0-0.2L11.6,15.7z"/>
	<path class="st0" d="M14.1,15.7c0.4-0.4,0.4-1.1,0-1.5s-1.1-0.4-1.5,0l-0.4,0.4l1.5,1.5L14.1,15.7z M12.8,14.4
		c0.3-0.3,0.8-0.3,1.1,0c0.3,0.3,0.3,0.8,0,1.1l-0.2,0.2l-1.1-1.1L12.8,14.4z"/>
	<path class="st0" d="M14.5,19.3c-0.1-0.1-0.1-0.1-0.2,0c-0.1,0.1-0.1,0.1,0,0.2l1,1c0,0,0.1,0,0.1,0c0,0,0.1,0,0.1,0
		c0.1-0.1,0.1-0.1,0-0.2L14.5,19.3z"/>
	<path class="st0" d="M14.8,18.9c-0.1-0.1-0.1-0.1-0.2,0c-0.1,0.1-0.1,0.1,0,0.2l1,1c0,0,0.1,0,0.1,0c0,0,0.1,0,0.1,0
		c0.1-0.1,0.1-0.1,0-0.2L14.8,18.9z"/>
	<path class="st0" d="M17.3,19c0.4-0.4,0.4-1.1,0-1.5c-0.4-0.4-1.1-0.4-1.5,0l-0.4,0.4l1.5,1.5L17.3,19z M16,17.7
		c0.3-0.3,0.8-0.3,1.1,0c0.3,0.3,0.3,0.8,0,1.1L17,18.9l-1.1-1.1L16,17.7z"/>
	<path class="st0" d="M17.7,22.5c-0.1-0.1-0.1-0.1-0.2,0c-0.1,0.1-0.1,0.1,0,0.2l1,1c0,0,0.1,0,0.1,0c0,0,0.1,0,0.1,0
		c0.1-0.1,0.1-0.1,0-0.2L17.7,22.5z"/>
	<path class="st0" d="M18.1,22.2c-0.1-0.1-0.1-0.1-0.2,0c-0.1,0.1-0.1,0.1,0,0.2l1,1c0,0,0.1,0,0.1,0s0.1,0,0.1,0
		c0.1-0.1,0.1-0.1,0-0.2L18.1,22.2z"/>
	<path class="st0" d="M19.8,20.4c-0.3,0-0.5,0.1-0.8,0.3l-0.4,0.4l1.5,1.5l0.4-0.4c0.4-0.4,0.4-1.1,0-1.5
		C20.4,20.5,20.1,20.4,19.8,20.4z M20.4,22l-0.2,0.2l-1.1-1.1l0.2-0.2c0.1-0.1,0.3-0.2,0.6-0.2s0.4,0.1,0.6,0.2
		C20.7,21.2,20.7,21.7,20.4,22z"/>
	<path class="st0" d="M28,4.2c-1.8-2.4-5.5-3.4-8.3-2.9c-1.8,0.3-3.9,1.6-3.9,1.6s-2.5-1.7-5.3-1.8c-7.3-0.3-12.1,8.1-8,14.2
		C3,16,3,16,3.2,16.7c0.3,0.9,1,1.6,1.9,1.8c0.5,0.1,0.8,0.1,1.1,0.6c0.2,0.2,0.1,0.5,0.2,0.8c0.1,0.5,0.4,0.9,0.8,1.2
		c0.6,0.5,1.2,0.4,1.8,0.8c0.6,0.4,0.6,0.7,0.8,1.3c0.3,0.8,0.9,1.4,1.6,1.7c0.6,0.2,0.9,0.2,1.4,0.7c0.3,0.4,0.2,1.2,0.9,1.9
		c0.6,0.6,1.3,0.8,2.1,0.8c0.9,0,1.7-0.5,2.2-1.2c0.3-0.4,0.6-0.6,0.9-1c0.3-0.3,3-2.9,3.2-3.2c0.2-0.2,0.2-0.6,0.3-0.8
		c0.2-0.2,0.8-0.3,1.2-0.4c0.9-0.4,1.4-1.2,1.6-2.2c0.2-0.9,0.5-0.6,1.3-0.9c0.9-0.3,1.6-1,1.8-1.9c0.1-0.5,0.1-0.8,0.4-1.3
		c0.2-0.4,0.5-0.8,0.7-1.2C31,11,30.5,6.9,28,4.2z M20.8,2.2C20.8,2.2,20.8,2.2,20.8,2.2C20.8,2.2,20.8,2.2,20.8,2.2z M21.2,2.2
		c1.9,0,3.9,0.7,5.3,2c-0.8,0.8-1.6,1.6-2.5,2.5c-0.6,0.6-0.8,0.9-1.6,0.9c-2.3,0-4.7,0-7,0c1.3,1.3,3.1,2.7,2.4,4.8
		c-0.1,0.3-0.6,0.7-1,0.3c0.3-0.3,0.4-0.7,0.3-1.2c-0.1-0.5-0.3-0.9-0.6-1.1c-0.1,0-0.1,0-0.2,0c-0.2,0-0.4,0.2-0.9,0.8
		c-0.1,0.1-0.1,0.1-0.1,0.2l0,0c-0.5-0.5-2.2-2.2-2.9-2.9c-0.2-0.2-0.2-0.5,0-0.7c0.5-0.5,1.5-1.6,2-2C16.4,3.7,18.4,2.2,21.2,2.2z
		 M16.6,12.5c-0.3-0.3-0.7-0.7-0.9-0.9c0,0-0.1-0.1-0.1-0.1c0.1-0.1,0.7-0.9,0.8-0.8C16.9,10.9,17.1,12.1,16.6,12.5z M7.1,17.2
		c-0.9,0.9-2.5,0.5-2.9-0.6c-0.3-0.8,0-1.4,0.6-2c1-1.1,2.1-2.1,3.1-3.1c1-1,2.4-2.4,3.7-0.8c1.1,1.4-0.5,2.6-1.4,3.5
		C9.1,15.2,8.1,16.2,7.1,17.2z M10.3,20.5c-1.7,1.7-3.9-0.9-2.5-2.5c0.9-1,1.9-1.9,2.9-2.9c0.9-0.9,2.1-2.5,3.6-1.5
		c1.7,1.3,0.1,2.8-0.9,3.8C12.4,18.4,11.4,19.4,10.3,20.5z M13.6,23.7c-0.9,0.9-2.5,0.5-2.9-0.6c-0.3-0.8,0-1.4,0.6-2
		c1-1.1,2.1-2.1,3.1-3.1c1-1,2.4-2.4,3.7-0.8c1.1,1.4-0.5,2.6-1.4,3.5C15.6,21.7,14.6,22.7,13.6,23.7z M21.1,22.7
		c-0.8,0.8-1.7,1.7-2.5,2.5c-0.8,0.8-1.9,2.4-3.2,2.2c-1.2-0.2-1.9-1.5-1.3-2.6c0.2-0.4,0.6-0.7,0.9-1.1c1.1-1.1,2.1-2.1,3.2-3.2
		c0.5-0.5,1-1,1.8-0.9C21.4,19.8,22.1,21.7,21.1,22.7z M27.3,16.4c-0.2,0.6-0.7,1.1-1.3,1.2c-0.8,0.2-1.4-0.3-1.9-0.8
		c-0.7-0.7-1.5-1.5-2.2-2.2c-0.3-0.3-1.2-1.5-1.8-1c-0.6,0.6,0.6,1.5,1,1.8c0.7,0.7,1.5,1.5,2.2,2.2c0.9,0.9,1.3,2.7-0.4,3.2
		c-0.7,0.2-0.8-0.8-1.3-1.2c-0.3-0.3-0.7-0.5-1.2-0.6c-0.3-0.1-0.6,0-0.9-0.2c-0.3-0.3-0.2-0.4-0.3-0.8c-0.1-0.5-0.3-0.9-0.6-1.3
		c-0.7-0.8-1.8-1.2-2.8-0.9c0.5-1.9-1.3-3.7-3.2-3.3c0.4-2-1.5-3.7-3.4-3.2c-0.9,0.3-1.5,1-2.1,1.6C6,12,4.6,13.2,3.5,14.5
		c-2-3-1.5-7.2,1-9.8c2.7-2.8,7.2-3.2,10.4-0.9c-0.9,0.9-1.7,1.7-2.6,2.6c-0.8,0.8-1.6,1.6-0.6,2.7l5.2,5c1,0.8,1.9-0.9,2.1-1.6
		c0.3-1.3,0-2.8-0.9-3.8c0.6,0,2.8,0,2.8,0s4.1,4.1,5.1,5.1C26.6,14.4,27.6,15.2,27.3,16.4C27.3,16.4,27.3,16.2,27.3,16.4z
		 M28.1,14.5c-0.1-0.2-0.3-0.4-0.5-0.6c-1.7-1.7-3.5-3.5-5.2-5.2c0.6,0,1.1,0,1.6-0.4c0.4-0.3,0.7-0.7,1-1c0.8-0.8,1.5-1.5,2.3-2.3
		C29.6,7.6,29.9,11.5,28.1,14.5z"/>
</g>
</svg>
