<?xml version="1.0" encoding="utf-8"?>
<!-- Generator: Adobe Illustrator 19.1.0, SVG Export Plug-In . SVG Version: 6.00 Build 0)  -->
<svg version="1.1" id="square" xmlns="http://www.w3.org/2000/svg" xmlns:xlink="http://www.w3.org/1999/xlink" x="0px" y="0px"
	 viewBox="-83 77.1 26.6 30.8" style="enable-background:new -83 77.1 26.6 30.8;" xml:space="preserve">
<style type="text/css">
	.st0{fill:none;stroke:#E9148B;stroke-width:1.1247;stroke-miterlimit:10;}
	.st1{fill:#E9148B;}
	.st2{fill:none;stroke:#E9148B;stroke-width:0.2249;stroke-linecap:round;stroke-linejoin:round;stroke-miterlimit:10;}
	.st3{fill:none;stroke:#E9148B;stroke-width:1.1247;stroke-linecap:round;stroke-linejoin:round;stroke-miterlimit:10;}
</style>
<circle class="st0" cx="-69.8" cy="80.7" r="2.7"/>
<g>
	<path class="st1" d="M-69.8,90.2c0.2,0,0.3,0.2,0.3,0.3c0,0.2-0.2,0.3-0.3,0.3c-0.2,0-0.3-0.2-0.3-0.3
		C-70.2,90.4-70,90.2-69.8,90.2 M-69.8,90c-0.3,0-0.6,0.3-0.6,0.6c0,0.3,0.3,0.6,0.6,0.6c0.3,0,0.6-0.3,0.6-0.6
		C-69.3,90.3-69.5,90-69.8,90L-69.8,90z"/>
</g>
<g>
	<path class="st1" d="M-69.8,92c0.2,0,0.3,0.2,0.3,0.3c0,0.2-0.2,0.3-0.3,0.3c-0.2,0-0.3-0.2-0.3-0.3C-70.2,92.2-70,92-69.8,92
		 M-69.8,91.8c-0.3,0-0.6,0.3-0.6,0.6c0,0.3,0.3,0.6,0.6,0.6c0.3,0,0.6-0.3,0.6-0.6C-69.3,92.1-69.5,91.8-69.8,91.8L-69.8,91.8z"/>
</g>
<path class="st2" d="M-68.9,81.3c0,0.5-0.4,0.9-0.9,0.9c-0.5,0-0.9-0.4-0.9-0.9"/>
<line class="st2" x1="-77" y1="98.7" x2="-62.6" y2="98.7"/>
<path class="st3" d="M-59,86.1v-0.9h-7.2h0c-2,0-3.6,1.6-3.6,3.6c0-2-1.6-3.6-3.6-3.6h0h-7.2v0.9c-0.7,0-1.3,0.6-1.3,1.3
	c0,0.7,0.6,1.3,1.3,1.3h3.6v10.8v7.2l7.2-7.2l7.2,7.2l0-7.2V88.8h3.6c0.7,0,1.3-0.6,1.3-1.3C-57.7,86.7-58.3,86.1-59,86.1z"/>
<line class="st2" x1="-78.8" y1="85.2" x2="-78.8" y2="88.8"/>
<line class="st2" x1="-60.8" y1="85.2" x2="-60.8" y2="88.8"/>
</svg>
